PathFileType	4	(X/Y/Z)	C:/Users/opensim2020/Desktop/walking_exp_matlab/subject03_walking17_run.trc	
DataRate	CameraRate	NumFrames	NumMarkers	Units	OrigDataRate	OrigDataStartFrame	OrigNumFrames	
100.00	100.00	4	50	mm	100.00	204	132	
Frame#	Time	RTOE			LTHI			RWRB			LTIB			RELB			RUPA			RKNE			RTHI			RASI			RFRM			RWRA			RSHO			STRN			LFRM			CLAV			LWRB			LASI			RFHD			LFIN			LSHO			RTIB			LWRA			RBHD			LHEE			RANK			RHEE			C7			RFIN			LBHD			LUPA			LTOE			RBAK			LELB			LFHD			RPSI			LPSI			T10			LKNE			LANK			*39			*40			*41			*42			*43			*44			*45			*46			*47			*48			*49			
		X1	Y1	Z1	X2	Y2	Z2	X3	Y3	Z3	X4	Y4	Z4	X5	Y5	Z5	X6	Y6	Z6	X7	Y7	Z7	X8	Y8	Z8	X9	Y9	Z9	X10	Y10	Z10	X11	Y11	Z11	X12	Y12	Z12	X13	Y13	Z13	X14	Y14	Z14	X15	Y15	Z15	X16	Y16	Z16	X17	Y17	Z17	X18	Y18	Z18	X19	Y19	Z19	X20	Y20	Z20	X21	Y21	Z21	X22	Y22	Z22	X23	Y23	Z23	X24	Y24	Z24	X25	Y25	Z25	X26	Y26	Z26	X27	Y27	Z27	X28	Y28	Z28	X29	Y29	Z29	X30	Y30	Z30	X31	Y31	Z31	X32	Y32	Z32	X33	Y33	Z33	X34	Y34	Z34	X35	Y35	Z35	X36	Y36	Z36	X37	Y37	Z37	X38	Y38	Z38	X39	Y39	Z39	X40	Y40	Z40	X41	Y41	Z41	X42	Y42	Z42	X43	Y43	Z43	X44	Y44	Z44	X45	Y45	Z45	X46	Y46	Z46	X47	Y47	Z47	X48	Y48	Z48	X49	Y49	Z49	X50	Y50	Z50	

1	0.000	203.06036	-2209.33154	30.40202	52.62559	-1830.57410	596.23621	396.28641	-1725.56299	881.61066	62.99587	-1870.95764	325.05692	478.61804	-1897.79431	999.76093	462.39374	-1899.18311	1092.95178	316.13696	-2008.88904	381.18130	363.78079	-2007.86218	560.45245	338.97705	-1901.14563	844.68176	434.42929	-1799.16077	934.52954	371.75912	-1720.78455	928.33777	365.78476	-1834.10315	1291.39246	213.11266	-1773.85547	1070.55078	-51.80321	-1920.34021	959.84583	211.31389	-1779.16760	1245.21179	-30.01947	-1881.46252	857.91553	107.22051	-1878.04895	843.60919	293.87299	-1794.11108	1537.82861	-18.10067	-1913.98816	774.61078	58.65205	-1824.66479	1299.32861	290.38016	-2149.71460	250.87627	26.16214	-1898.22131	862.60071	268.76892	-1900.32104	1465.83069	95.67970	-2096.64600	188.76627	219.09338	-2312.17236	120.74696	164.03397	-2363.97144	126.14797	199.21107	-1900.86267	1333.42004	372.47937	-1658.22632	879.08728	140.40434	-1878.14417	1471.47534	-58.39592	-1918.44836	1161.20483	83.94405	-1948.28955	75.71798	301.12854	-1976.37988	1180.29993	-93.12216	-1966.34045	1062.89734	163.78600	-1766.14673	1543.72363	285.83704	-2042.51489	917.49329	136.09390	-2034.84558	904.05402	205.06642	-1996.47668	1044.22656	89.26486	-1728.06018	451.69266	64.88455	-2029.63477	193.67598							198.72363	-1871.20447	1577.47534																								 
2	0.010	203.12595	-2207.66626	30.44306	53.40207	-1787.70593	609.75763	386.96609	-1683.02429	904.19910	62.20884	-1813.59985	325.54065	478.65610	-1859.07153	1007.82086	462.42194	-1861.19116	1099.73755	317.42960	-1995.90540	387.50510	363.74237	-1983.69446	565.86493	338.78534	-1865.21484	848.67761	429.23111	-1758.89966	951.14587	364.75894	-1681.80493	952.11462	364.73889	-1798.74756	1298.31604	210.63930	-1740.00464	1076.97632	-57.17996	-1899.31506	976.05261	209.44171	-1746.61694	1251.69910	-36.67032	-1861.44910	873.17651	107.53785	-1842.51343	851.44067	293.19766	-1762.43738	1543.96863	-21.33922	-1893.17212	789.59735	58.71699	-1795.82251	1307.18799	292.02570	-2140.05103	259.58035	19.93578	-1876.35571	878.65375	268.09109	-1868.50488	1471.77136	91.95164	-2022.93921	165.90370	221.09634	-2303.99341	131.08394	165.93658	-2353.55225	138.37965	200.28987	-1869.10864	1339.21533	361.93619	-1615.73193	907.33234	139.76897	-1846.43018	1477.62085	-60.01160	-1892.75317	1174.31213	86.34823	-1864.91687	68.06113	304.11035	-1941.33008	1185.73401	-96.36803	-1944.38293	1078.98706	163.24643	-1734.48315	1550.00317	287.14725	-2006.78821	921.54578	137.19984	-1999.71936	910.69275	208.55586	-1962.40833	1049.01941	90.63689	-1681.99451	468.51239	63.24669	-1956.86609	176.60028							198.17760	-1839.65100	1583.53259																								 
3	0.020	203.40387	-2205.67236	30.69315	54.27360	-1747.01465	622.77704	379.23026	-1641.94702	926.42120	60.64542	-1755.61035	325.78308	478.52451	-1820.56958	1016.45947	462.24847	-1823.12720	1107.05347	318.58594	-1981.93567	395.54321	363.84680	-1958.65686	572.50049	338.66818	-1828.30627	852.87708	424.45740	-1719.30103	967.51477	358.14267	-1644.32092	975.13391	363.59409	-1763.37195	1305.73462	207.99559	-1705.67566	1084.12915	-61.41114	-1877.42590	992.42316	207.74852	-1713.86926	1258.78027	-41.99858	-1840.11218	888.91510	108.07906	-1806.34399	859.83466	292.60434	-1730.58813	1550.42566	-23.67203	-1870.44519	804.95660	58.78670	-1766.51624	1315.24780	294.27469	-2129.19336	269.84109	14.92552	-1853.39868	895.16003	267.45490	-1836.52979	1478.21521	90.93201	-1948.03662	143.25526	223.72665	-2292.31665	141.12062	168.77853	-2340.65552	151.04626	201.22731	-1837.06946	1345.27100	351.83694	-1575.80579	934.80896	139.14613	-1814.57300	1484.25916	-61.16435	-1866.35059	1187.46375	91.25578	-1780.80383	62.08986	306.58926	-1906.08289	1191.93042	-98.75459	-1921.80359	1095.30981	162.63281	-1702.90283	1556.76160	288.45465	-1970.08081	925.92316	138.36284	-1963.66553	917.74396	212.08850	-1927.93689	1054.22827	91.25996	-1640.95618	482.55252	63.67423	-1884.36230	159.55405							197.74838	-1807.86279	1590.14026																								 
4	0.030	204.17998	-2203.26465	30.93836	54.93796	-1707.77234	634.74884	371.50592	-1602.54187	948.01398	61.10194	-1700.46790	323.98831	478.45126	-1782.13721	1025.51477	462.15036	-1785.46265	1114.81616	319.31506	-1966.96826	404.77060	364.01859	-1932.62195	580.06354	338.38315	-1790.65686	857.43103	420.61426	-1680.32922	983.70313	351.60168	-1608.25549	997.02118	362.27786	-1728.00562	1313.34375	205.73256	-1671.43945	1091.37158	-64.25009	-1854.64172	1008.84912	206.12711	-1680.99084	1266.10522	-45.98642	-1817.52686	904.74640	108.71739	-1769.21375	868.83203	292.07333	-1698.58398	1556.96753	-25.15201	-1846.30518	820.50940	58.90013	-1736.62170	1323.17285	296.90210	-2116.89258	281.35602	11.10125	-1829.15247	911.50647	266.86502	-1804.47144	1484.89734	92.32181	-1870.93481	121.87348	227.52737	-2279.79175	151.87288	172.31747	-2324.86572	163.66423	202.01654	-1804.76672	1351.49609	342.56540	-1537.72607	961.18591	138.59074	-1782.60107	1491.15649	-61.65616	-1839.39063	1200.73511	96.66463	-1696.84253	57.46048	308.64459	-1870.68811	1198.57690	-100.03868	-1898.51587	1111.53259	162.12340	-1671.09546	1563.58813	289.78500	-1932.39673	930.48425	139.77892	-1926.82959	924.95447	215.59727	-1893.04773	1059.67615	91.76801	-1601.39307	494.49380	64.69173	-1810.08496	142.31963							197.42641	-1775.80103	1596.93335																								 
